<svg width="395" height="67" viewBox="0 0 395 67" fill="none" xmlns="http://www.w3.org/2000/svg">
<path d="M103.174 52.3885C99.7129 52.3885 96.7907 51.6193 94.4077 50.0809C92.0156 48.5317 90.1345 46.3102 89.0007 43.6955C87.7264 40.7226 87.0998 37.5124 87.1625 34.2785C87.0998 31.0446 87.7264 27.8344 89.0007 24.8614C90.1327 22.2456 92.0142 20.0237 94.4077 18.476C96.7907 16.9376 99.7129 16.1684 103.174 16.1684C107.213 16.1684 110.512 17.2015 113.072 19.2678C115.676 21.4031 117.522 24.3205 118.338 27.5876L114.718 28.5321C114.106 25.9873 112.712 23.6985 110.731 21.9883C108.811 20.3782 106.293 19.5732 103.174 19.5732C100.775 19.4818 98.4062 20.1294 96.3873 21.4283C94.5498 22.7157 93.1347 24.5184 92.3207 26.6091C91.3675 29.0528 90.8876 31.6555 90.9067 34.2785C90.8392 36.8931 91.2949 39.4949 92.2472 41.9308C93.0713 44.0271 94.5007 45.8306 96.3533 47.1116C98.3832 48.4159 100.763 49.069 103.174 48.9837C106.296 48.9837 108.815 48.1749 110.731 46.5573C112.706 44.8466 114.099 42.5635 114.718 40.0248L118.338 40.9637C117.522 44.2308 115.676 47.1482 113.072 49.2835C110.516 51.3535 107.216 52.3885 103.174 52.3885Z" fill="#E9BE00"/>
<path d="M134.542 52.3885C132.204 52.4583 129.896 51.8451 127.902 50.6239C126.055 49.4382 124.588 47.7456 123.677 45.7486C122.658 43.5055 122.153 41.0628 122.201 38.5995C122.145 36.1185 122.658 33.6577 123.699 31.4053C124.625 29.4222 126.104 27.7489 127.958 26.5865C129.982 25.4483 132.265 24.8505 134.587 24.8505C136.909 24.8505 139.192 25.4483 141.216 26.5865C143.064 27.761 144.532 29.4468 145.441 31.4392C146.451 33.6807 146.952 36.1186 146.905 38.5769C146.959 41.059 146.455 43.5215 145.429 45.7825C144.512 47.7738 143.037 49.4558 141.182 50.6239C139.182 51.8326 136.878 52.4448 134.542 52.3885ZM134.542 48.995C137.438 48.995 139.594 48.0335 141.012 46.1105C142.426 44.1819 143.139 41.6876 143.139 38.6109C143.139 35.5341 142.426 32.955 141.001 31.0772C139.575 29.1995 137.421 28.2776 134.542 28.2776C132.838 28.2067 131.155 28.6651 129.723 29.5898C128.439 30.4979 127.454 31.7679 126.895 33.2378C126.249 34.954 125.934 36.7773 125.967 38.6109C125.967 41.7517 126.691 44.2667 128.139 46.1558C129.587 48.0448 131.721 48.9875 134.542 48.9837V48.995Z" fill="#E9BE00"/>
<path d="M152.708 20.6141V16.655H156.26V20.6141H152.708ZM152.708 51.6422V25.5856H156.26V51.6648L152.708 51.6422Z" fill="#E9BE00"/>
<path d="M163.455 51.6648V25.5856H166.667V32.005H167.029V51.6648H163.455ZM182.311 51.6648V38.3566C182.322 37.0147 182.186 35.6756 181.904 34.3635C181.663 33.2288 181.216 32.1478 180.586 31.1736C180 30.2811 179.193 29.5546 178.245 29.064C177.163 28.5346 175.97 28.2764 174.766 28.3117C173.625 28.2886 172.493 28.5124 171.446 28.9678C170.504 29.3885 169.676 30.0284 169.031 30.8343C168.346 31.7123 167.842 32.7178 167.549 33.7923C167.193 35.0813 167.022 36.4143 167.04 37.7514L164.529 37.1858C164.453 34.8607 164.934 32.5511 165.932 30.4497C166.781 28.7201 168.125 27.2827 169.795 26.3209C171.524 25.3654 173.475 24.8835 175.451 24.9239C176.848 24.8921 178.238 25.1382 179.54 25.6478C180.652 26.0898 181.662 26.7537 182.509 27.5991C183.322 28.4221 183.988 29.3786 184.477 30.427C184.98 31.4946 185.345 32.6215 185.563 33.781C185.788 34.9478 185.902 36.1333 185.903 37.3215V51.6648H182.311Z" fill="#E9BE00"/>
<path d="M192.175 51.6647V16.8925H212.146V20.4387H195.744V32.4914H209.267V36.015H195.75V51.6647H192.175Z" fill="#E9BE00"/>
<path d="M226.659 52.3885C224.319 52.4578 222.01 51.8446 220.013 50.6239C218.169 49.435 216.703 47.7434 215.788 45.7486C214.774 43.5042 214.271 41.0622 214.318 38.5995C214.262 36.1185 214.775 33.6577 215.817 31.4053C216.742 29.4222 218.221 27.7489 220.075 26.5865C222.099 25.4483 224.382 24.8505 226.704 24.8505C229.026 24.8505 231.309 25.4483 233.333 26.5865C235.18 27.7687 236.644 29.4626 237.546 31.4618C238.559 33.7028 239.061 36.1408 239.017 38.5995C239.07 41.081 238.567 43.5428 237.546 45.8051C236.63 47.7964 235.154 49.4784 233.299 50.6465C231.296 51.8473 228.993 52.4516 226.659 52.3885ZM226.659 48.995C229.555 48.995 231.711 48.0335 233.129 46.1105C234.543 44.1819 235.25 41.6876 235.25 38.6109C235.25 35.5341 234.537 32.955 233.118 31.0772C231.698 29.1995 229.538 28.2776 226.659 28.2776C224.956 28.2067 223.272 28.6651 221.84 29.5898C220.554 30.4959 219.569 31.7666 219.012 33.2378C218.366 34.954 218.051 36.7773 218.085 38.6109C218.085 41.7517 218.808 44.2667 220.256 46.1558C221.704 48.0448 223.838 48.9875 226.659 48.9837V48.995Z" fill="#E9BE00"/>
<path d="M244.333 51.665V25.5858H247.523V31.8638L246.895 31.0437C247.175 30.2834 247.555 29.5643 248.027 28.9058C248.451 28.2973 248.963 27.7559 249.548 27.2995C250.239 26.6945 251.042 26.2314 251.912 25.9365C252.79 25.6222 253.708 25.4318 254.638 25.3709C255.481 25.3076 256.328 25.3763 257.15 25.5745V28.9058C256.132 28.6586 255.077 28.6011 254.039 28.7361C252.891 28.8749 251.808 29.3446 250.922 30.0879C250.084 30.7271 249.413 31.5595 248.966 32.5143C248.529 33.4649 248.235 34.4751 248.095 35.5119C247.953 36.5485 247.881 37.5934 247.88 38.6396V51.648L244.333 51.665Z" fill="#E9BE00"/>
<path d="M261.737 51.6648V16.8926H275.164C276.936 16.8509 278.688 17.2658 280.254 18.0973C281.657 18.8564 282.829 19.9799 283.647 21.3494C284.456 22.7186 284.873 24.2839 284.852 25.8741C284.878 27.6419 284.356 29.3744 283.359 30.8343C282.402 32.2653 280.992 33.333 279.355 33.8658L279.304 32.6837C281.39 33.2203 283.251 34.4092 284.614 36.0773C285.922 37.739 286.606 39.8061 286.549 41.9198C286.598 43.7376 286.157 45.5352 285.271 47.1232C284.429 48.5816 283.178 49.7614 281.673 50.5167C279.999 51.3369 278.153 51.7441 276.289 51.7044L261.737 51.6648ZM265.311 31.7166H275.141C276.203 31.7279 277.251 31.467 278.184 30.9587C279.084 30.4668 279.837 29.7446 280.367 28.866C280.92 27.9406 281.2 26.8781 281.176 25.8006C281.202 25.0498 281.064 24.3023 280.771 23.6106C280.477 22.9189 280.037 22.2996 279.479 21.7962C278.288 20.7409 276.736 20.1858 275.147 20.2465H265.311V31.7166ZM265.311 48.26H275.407C276.717 48.2813 278.017 48.0209 279.219 47.4964C280.292 47.0376 281.216 46.2896 281.888 45.3359C282.562 44.335 282.904 43.1481 282.867 41.9424C282.884 40.7466 282.586 39.5675 282.003 38.5232C281.42 37.4789 280.573 36.6061 279.547 35.9924C278.493 35.3635 277.284 35.0422 276.057 35.0649H265.311V48.26Z" fill="#E9BE00"/>
<path d="M298.805 52.3888C297.097 52.4454 295.401 52.0802 293.867 51.3255C292.618 50.6935 291.58 49.7107 290.881 48.4976C290.224 47.3269 289.883 46.0054 289.891 44.6629C289.855 43.3963 290.152 42.1425 290.751 41.0261C291.319 40.0227 292.123 39.1725 293.093 38.5489C294.153 37.8787 295.314 37.3823 296.531 37.0784C297.855 36.756 299.314 36.4732 300.915 36.2187C302.515 35.9642 304.088 35.7549 305.626 35.5682C307.164 35.3816 308.511 35.2006 309.67 35.0027L308.414 35.7775C308.46 33.1984 307.96 31.2905 306.916 30.0538C305.871 28.817 304.052 28.2043 301.458 28.2156C299.863 28.1623 298.288 28.5835 296.933 29.426C295.628 30.3335 294.703 31.6909 294.337 33.238L290.881 32.2256C291.383 30.0367 292.663 28.1049 294.484 26.7903C296.283 25.5046 298.624 24.8617 301.509 24.8617C303.613 24.7986 305.7 25.2592 307.583 26.2021C309.187 27.0285 310.442 28.4033 311.118 30.0764C311.453 30.8847 311.665 31.7389 311.746 32.6102C311.843 33.5498 311.892 34.4936 311.893 35.4382V51.6648H308.725V45.121L309.647 45.5056C308.859 47.6048 307.41 49.3912 305.519 50.5959C303.498 51.8236 301.168 52.4459 298.805 52.3888ZM299.212 49.3176C300.71 49.3522 302.197 49.0487 303.562 48.4297C304.746 47.8734 305.773 47.0295 306.548 45.975C307.308 44.9356 307.813 43.7327 308.024 42.4627C308.224 41.5542 308.328 40.6272 308.335 39.697C308.335 38.6903 308.335 37.938 308.335 37.4347L309.715 38.1473C308.511 38.3057 307.204 38.4697 305.796 38.6281C304.387 38.7864 303.002 38.9731 301.639 39.1937C300.399 39.3806 299.17 39.6316 297.957 39.9459C297.209 40.1585 296.489 40.4544 295.807 40.8282C295.133 41.1918 294.552 41.7067 294.111 42.3327C293.649 43.0259 293.417 43.8473 293.449 44.6798C293.451 45.4471 293.646 46.2015 294.015 46.8743C294.442 47.6295 295.081 48.243 295.853 48.6389C296.894 49.1377 298.042 49.3709 299.195 49.3176H299.212Z" fill="#E9BE00"/>
<path d="M318.171 51.6648V25.5856H321.355V31.8636L320.727 31.0435C321.006 30.2832 321.387 29.564 321.858 28.9056C322.282 28.2971 322.795 27.7556 323.38 27.2993C324.081 26.6904 324.896 26.2271 325.778 25.9362C326.658 25.6213 327.577 25.431 328.51 25.3706C329.352 25.3078 330.199 25.3765 331.021 25.5743V28.9056C330.001 28.6583 328.945 28.6008 327.905 28.7359C326.757 28.876 325.675 29.3455 324.788 30.0876C323.95 30.7268 323.278 31.5593 322.831 32.514C322.394 33.464 322.102 34.4746 321.966 35.5116C321.82 36.5478 321.746 37.5929 321.745 38.6393V51.6478L318.171 51.6648Z" fill="#E9BE00"/>
<path d="M332.678 28.6285V25.5856H349.776V28.6285H332.678ZM349.776 51.6648C348.352 51.9659 346.897 52.0875 345.443 52.0268C344.117 51.987 342.813 51.6731 341.614 51.1049C340.5 50.5666 339.602 49.6649 339.069 48.5484C338.613 47.6336 338.353 46.6339 338.306 45.613C338.268 44.6251 338.249 43.4939 338.249 42.2195V18.3517H341.773V42.1064C341.773 43.198 341.773 44.1142 341.807 44.8438C341.82 45.5221 341.99 46.1882 342.304 46.7894C342.575 47.3109 342.967 47.7589 343.449 48.0949C343.931 48.4308 344.487 48.6447 345.07 48.7181C346.632 48.9245 348.217 48.8768 349.764 48.5767L349.776 51.6648Z" fill="#E9BE00"/>
<path d="M364.99 52.3885C362.673 52.4454 360.386 51.858 358.384 50.6917C356.517 49.5544 355.015 47.9056 354.057 45.9408C352.983 43.6977 352.452 41.2331 352.508 38.7466C352.443 36.201 352.962 33.6745 354.023 31.36C354.957 29.378 356.447 27.7098 358.31 26.5582C360.286 25.3915 362.549 24.8036 364.843 24.8614C367.166 24.791 369.457 25.4068 371.432 26.6317C373.294 27.87 374.736 29.6453 375.566 31.722C376.553 34.2398 376.989 36.9398 376.845 39.6402H373.219V38.3563C373.155 34.9628 372.427 32.412 371.036 30.7039C369.645 28.9958 367.612 28.1343 364.939 28.1192C362.138 28.1192 359.992 29.0298 358.503 30.851C357.013 32.6722 356.259 35.2625 356.24 38.6221C356.24 41.9101 356.994 44.4571 358.503 46.2632C360.011 48.0693 362.124 48.9761 364.843 48.9837C366.562 49.0249 368.257 48.5757 369.73 47.6885C371.162 46.7867 372.307 45.4933 373.027 43.9613L376.336 45.2395C375.393 47.4135 373.816 49.2526 371.811 50.5164C369.762 51.778 367.396 52.4275 364.99 52.3885ZM355.013 39.6119V36.6426H374.939V39.6119H355.013Z" fill="#E9BE00"/>
<path d="M382.178 51.6648V25.5856H385.368V31.8636L384.74 31.0435C385.021 30.2841 385.402 29.5652 385.871 28.9056C386.298 28.2996 386.811 27.7586 387.393 27.2993C388.086 26.6941 388.891 26.231 389.763 25.9362C390.641 25.6219 391.558 25.4316 392.489 25.3706C393.331 25.3078 394.179 25.3765 395 25.5743V28.9056C393.98 28.6582 392.924 28.6007 391.884 28.7359C390.738 28.8761 389.657 29.3456 388.773 30.0876C387.934 30.7268 387.263 31.5593 386.816 32.514C386.379 33.4646 386.085 34.4748 385.945 35.5116C385.804 36.5482 385.732 37.5931 385.73 38.6393V51.6478L382.178 51.6648Z" fill="#E9BE00"/>
<path d="M16.7527 45.3585C16.7527 48.3165 25.5475 50.7146 36.3955 50.7146C47.2434 50.7146 56.0383 48.3278 56.0383 45.3585C56.0401 45.1653 56.0055 44.9734 55.9365 44.7929C54.9298 47.4908 46.5647 49.6004 36.3955 49.6004C26.2262 49.6004 17.8612 47.4908 16.8545 44.7929C16.7854 44.9734 16.7509 45.1653 16.7527 45.3585Z" fill="#E9BE00"/>
<path d="M22.7253 31.0038C22.3011 33.0568 28.0644 35.9809 35.632 37.5363C43.1995 39.0916 49.6189 38.6675 50.0431 36.6257C50.0664 36.4947 50.0664 36.3607 50.0431 36.2298C48.9572 37.9605 42.8432 38.2263 35.779 36.7954C28.7148 35.3644 23.189 32.6553 22.8723 30.6361C22.7989 30.7474 22.7489 30.8725 22.7253 31.0038Z" fill="#E9BE00"/>
<path d="M25.1799 25.0994C25.1737 25.2129 25.191 25.3265 25.2308 25.4331C25.7964 27.1298 31.2996 26.7565 37.4871 24.6186C43.6746 22.4807 48.2332 19.3813 47.6337 17.6958C47.5983 17.5882 47.5426 17.4884 47.4697 17.4017C47.4244 19.1437 43.0694 21.9886 37.2891 23.9908C31.5088 25.993 26.2828 26.4398 25.1799 25.0994Z" fill="#E9BE00"/>
<path d="M17.273 43.8314V43.8879V43.9501C17.471 44.5157 18.8906 45.8279 22.9685 46.8799C27.3701 47.8981 31.878 48.3842 36.3955 48.3278C40.9132 48.3824 45.4212 47.8943 49.8225 46.8742C53.9004 45.8222 55.32 44.5383 55.518 43.9445V43.8823V43.8257C55.32 43.2601 53.9004 41.9479 49.8225 40.896C46.3359 40.0636 42.7727 39.5936 39.1895 39.4933H38.3015H38.2393H37.374H35.451H34.5856H34.5008H33.6241H33.5959C30.0146 39.5947 26.4534 40.0647 22.9685 40.896C18.8906 41.9536 17.471 43.2375 17.273 43.8314Z" fill="#E9BE00"/>
<path d="M23.2569 29.9914V30.0423V30.1045C23.2569 30.229 23.4945 31.3658 26.8258 32.9947C29.7397 34.3376 32.8045 35.325 35.9543 35.9357C38.6978 36.5205 41.4919 36.8349 44.2967 36.8746C44.7153 36.8746 45.1168 36.8746 45.5014 36.8746C49.206 36.6936 49.8565 35.7434 49.9187 35.6303L49.9526 35.5738V35.5116C49.9526 35.3871 49.7151 34.2503 46.3837 32.6214C44.0775 31.5442 41.6668 30.7065 39.1895 30.1215L38.935 30.0593L38.6126 29.9858H38.5673L38.3015 29.9236L37.8943 29.7991H37.8434L37.504 29.7256L37.2269 29.669L36.9724 29.6181L36.6048 29.5446H36.5595L36.1975 29.4541L35.96 29.4089H35.9204L35.3096 29.3014C32.8055 28.854 30.2621 28.6645 27.7194 28.7358C23.9752 28.9225 23.3191 29.884 23.2569 29.9914Z" fill="#E9BE00"/>
<path d="M27.8551 21.604C25.8473 22.9331 25.146 23.9738 25.1516 24.432V24.4942L25.1912 24.5394C25.4288 24.8561 26.2715 25.1729 27.8721 25.1729C28.2492 25.1729 28.6507 25.1559 29.0768 25.122C31.7933 24.8442 34.4668 24.2423 37.0403 23.3291C39.6327 22.4692 42.1126 21.3014 44.4268 19.8507C46.4347 18.5216 47.136 17.4809 47.1303 17.0228V16.9606L47.0907 16.9097C46.7966 16.5251 45.6033 16.1405 43.2052 16.3441C41.0485 16.5553 38.9197 16.9912 36.8536 17.6449L36.5426 17.7411L36.3446 17.8033H36.305L35.8073 17.9673H35.7677L35.2587 18.1426L34.8345 18.2897L34.7553 18.318L34.2576 18.4989H34.2237L33.9352 18.6121L33.7259 18.6912C31.6723 19.4536 29.7045 20.4299 27.8551 21.604Z" fill="#E9BE00"/>
<path d="M10.0957 29.0583C8.53092 29.1819 7.02019 29.6868 5.69546 30.5288C5.96044 22.787 9.15726 15.4352 14.6387 9.9617C20.1201 4.48821 27.4766 1.30205 35.2188 1.04829C42.9609 0.794535 50.5102 3.49213 56.3383 8.59494C62.1664 13.6977 65.8378 20.8245 66.6091 28.5323L67.7403 28.4079C66.913 20.4254 63.0864 13.0547 57.0338 7.78504C50.9812 2.5154 43.1538 -0.260169 35.1335 0.019217C27.1132 0.298603 19.498 3.61211 13.8268 9.29014C8.15549 14.9682 4.85107 22.5874 4.58125 30.608C3.18029 29.8344 1.60001 29.4442 0 29.4768C2.26439 30.9509 4.09396 33.0031 5.29955 35.4211C6.22145 32.8816 8.09354 30.8229 10.0957 29.0583Z" fill="#E9BE00"/>
<path d="M72.791 37.3556C70.5238 35.8799 68.6938 33.8233 67.4914 31.4C66.5922 33.9451 64.6635 35.9982 62.6953 37.7685C64.2606 37.6431 65.7713 37.1363 67.0955 36.2923C66.8337 44.0349 63.6394 51.3887 58.1594 56.8646C52.6793 62.3405 45.3231 65.5293 37.5803 65.7852C29.8375 66.0411 22.2868 63.3451 16.4571 58.2431C10.6274 53.141 6.9544 46.0142 6.18187 38.3058L5.09029 38.4302C5.95839 46.16 9.64052 53.3 15.4348 58.4893C21.2291 63.6786 28.7303 66.5543 36.5086 66.5682C37.7143 66.5678 38.919 66.4998 40.1171 66.3646C47.6232 65.508 54.5772 62.0003 59.7273 56.4728C64.8773 50.9453 67.8853 43.7611 68.2097 36.2131C69.6088 36.9927 71.1897 37.3869 72.791 37.3556Z" fill="#E9BE00"/>
</svg>
