<svg width="229" height="40" viewBox="0 0 229 40" fill="none" xmlns="http://www.w3.org/2000/svg">
<path d="M34.6281 5.25661L28.5703 28.3162C27.7386 31.4823 23.7107 31.5125 22.8405 28.3593L20.331 19.2656C20.0342 18.1902 19.2764 17.3484 18.3083 17.0187L10.1218 14.2311C7.28316 13.2645 7.31041 8.79017 10.1606 7.8663L30.9197 1.13727C33.1864 0.402505 35.2896 2.73873 34.6281 5.25661Z" fill="url(#paint0_linear_4906_1379)" stroke="#F2F2F2" stroke-width="0.5"/>
<path d="M31.0085 9.27952L24.9507 32.3392C24.1526 35.3772 20.2874 35.4062 19.4524 32.3804L16.9429 23.2868C16.6343 22.1687 15.8465 21.2936 14.84 20.9509L6.65358 18.1632C3.92962 17.2357 3.95578 12.9422 6.69074 12.0556L27.4499 5.32653C29.625 4.6215 31.6432 6.8633 31.0085 9.27952Z" fill="url(#paint1_linear_4906_1379)" stroke="#F2F2F2" stroke-width="0.5"/>
<path d="M27.3835 13.5402L21.3257 36.5998C20.5276 39.6379 16.6624 39.6669 15.8274 36.6411L13.3179 27.5475C13.0093 26.4295 12.2215 25.5543 11.215 25.2116L3.02858 22.424C0.304625 21.4964 0.330784 17.2029 3.06574 16.3163L23.8249 9.5873C26 8.88219 28.0182 11.1241 27.3835 13.5402Z" fill="url(#paint2_linear_4906_1379)" stroke="#F2F2F2" stroke-width="0.5"/>
<path d="M51.6161 12.3872V17.976H56.7983V19.2657H51.6161V26.1338H50.3984V11.0975H58.0162V12.3872H51.6161ZM79.0852 26.1338V11.0975H80.3025V24.8441H85.4854V26.1338H79.0852ZM109.235 18.9407V26.1338H108.018V18.9617L104.515 11.0975H105.827L108.612 17.3468L111.396 11.0975H112.709L109.235 18.9407ZM141.396 22.6526C141.396 23.1629 141.308 23.6418 141.131 24.0891C140.961 24.5365 140.725 24.9279 140.423 25.2635C140.121 25.599 139.769 25.8647 139.366 26.0604C138.963 26.2492 138.532 26.3435 138.073 26.3435H137.11C136.65 26.3435 136.217 26.2492 135.808 26.0604C135.405 25.8647 135.052 25.599 134.75 25.2635C134.448 24.9279 134.209 24.5365 134.033 24.0891C133.863 23.6418 133.778 23.1629 133.778 22.6526V14.5787C133.778 14.0684 133.863 13.5896 134.033 13.1421C134.209 12.6948 134.448 12.3033 134.75 11.9678C135.052 11.6322 135.405 11.3701 135.808 11.1814C136.217 10.9856 136.65 10.8877 137.11 10.8877H138.073C138.532 10.8877 138.963 10.9856 139.366 11.1814C139.769 11.3701 140.121 11.6322 140.423 11.9678C140.725 12.3033 140.961 12.6948 141.131 13.1421C141.308 13.5896 141.396 14.0684 141.396 14.5787V15.1868L140.178 15.3966V14.5787C140.178 14.2431 140.121 13.9321 140.008 13.6455C139.894 13.3519 139.74 13.0967 139.545 12.88C139.35 12.6633 139.121 12.4921 138.856 12.3662C138.598 12.2404 138.318 12.1775 138.016 12.1775H137.167C136.865 12.1775 136.581 12.2404 136.317 12.3662C136.059 12.4921 135.829 12.6633 135.628 12.88C135.433 13.0967 135.278 13.3519 135.165 13.6455C135.052 13.9321 134.996 14.2431 134.996 14.5787V22.6526C134.996 22.9881 135.052 23.3027 135.165 23.5963C135.278 23.8829 135.433 24.138 135.628 24.3618C135.829 24.5784 136.059 24.7497 136.317 24.8755C136.581 25.0014 136.865 25.0642 137.167 25.0642H138.016C138.318 25.0642 138.598 25.0014 138.856 24.8755C139.121 24.7497 139.35 24.5784 139.545 24.3618C139.74 24.138 139.894 23.8829 140.008 23.5963C140.121 23.3027 140.178 22.9881 140.178 22.6526V21.8347L141.396 22.0549V22.6526ZM168.525 22.6316H164.239L163.352 26.1338H162.087L166.051 11.0975H166.693L170.677 26.1338H169.421L168.525 22.6316ZM164.57 21.3419H168.203L166.419 14.4109L166.382 13.8552L166.344 14.4109L164.57 21.3419ZM199.165 22.6526C199.165 23.1629 199.071 23.6418 198.882 24.0891C198.7 24.5365 198.451 24.9279 198.136 25.2635C197.828 25.599 197.466 25.8647 197.051 26.0604C196.642 26.2492 196.208 26.3435 195.748 26.3435H194.776C194.316 26.3435 193.879 26.2492 193.464 26.0604C193.055 25.8647 192.693 25.599 192.378 25.2635C192.07 24.9279 191.821 24.5365 191.633 24.0891C191.45 23.6418 191.359 23.1629 191.359 22.6526V22.0549L192.576 21.8347V22.6526C192.576 22.9881 192.636 23.3027 192.756 23.5963C192.881 23.8829 193.049 24.138 193.256 24.3618C193.464 24.5784 193.703 24.7497 193.974 24.8755C194.25 25.0014 194.54 25.0642 194.842 25.0642H195.691C195.993 25.0642 196.28 25.0014 196.55 24.8755C196.821 24.7497 197.06 24.5784 197.268 24.3618C197.476 24.138 197.639 23.8829 197.759 23.5963C197.885 23.3027 197.948 22.9881 197.948 22.6526V22.2017C197.948 21.6844 197.856 21.2545 197.674 20.912C197.492 20.5694 197.249 20.2793 196.947 20.0417C196.645 19.797 196.302 19.5908 195.918 19.423C195.54 19.2553 195.151 19.0875 194.748 18.9197C194.345 18.7519 193.951 18.5667 193.568 18.364C193.19 18.1613 192.85 17.9096 192.548 17.609C192.246 17.3014 192.004 16.9274 191.821 16.4871C191.639 16.0467 191.548 15.5049 191.548 14.8618V14.5787C191.548 14.0684 191.633 13.5896 191.802 13.1421C191.979 12.6948 192.218 12.3033 192.52 11.9678C192.822 11.6322 193.174 11.3701 193.577 11.1814C193.986 10.9856 194.42 10.8877 194.88 10.8877H195.748C196.208 10.8877 196.639 10.9856 197.041 11.1814C197.444 11.3701 197.797 11.6322 198.099 11.9678C198.401 12.3033 198.637 12.6948 198.807 13.1421C198.983 13.5896 199.071 14.0684 199.071 14.5787V14.9667L197.853 15.1868V14.5787C197.853 14.2431 197.797 13.9321 197.683 13.6455C197.57 13.3519 197.416 13.0967 197.221 12.88C197.026 12.6633 196.796 12.4921 196.532 12.3662C196.274 12.2404 195.993 12.1775 195.691 12.1775H194.936C194.634 12.1775 194.351 12.2404 194.087 12.3662C193.829 12.4921 193.599 12.6633 193.398 12.88C193.203 13.0967 193.049 13.3519 192.935 13.6455C192.822 13.9321 192.765 14.2431 192.765 14.5787V14.8618C192.765 15.3441 192.857 15.7495 193.039 16.0781C193.222 16.4067 193.464 16.6898 193.766 16.9274C194.068 17.1581 194.408 17.3609 194.785 17.5356C195.169 17.7034 195.563 17.8781 195.966 18.0599C196.368 18.2347 196.758 18.4304 197.136 18.6471C197.52 18.8568 197.863 19.119 198.165 19.4335C198.467 19.7411 198.709 20.1186 198.891 20.5659C199.074 21.0133 199.165 21.5586 199.165 22.2017V22.6526ZM227.522 26.1338V19.2657H222.339V26.1338H221.121V11.0975H222.339V17.976H227.522V11.0975H228.74V26.1338H227.522Z" fill="white"/>
<defs>
<linearGradient id="paint0_linear_4906_1379" x1="39.1539" y1="-4.60159" x2="-4.8305" y2="34.4549" gradientUnits="userSpaceOnUse">
<stop stop-color="#F50C0C"/>
<stop offset="1" stop-color="white"/>
</linearGradient>
<linearGradient id="paint1_linear_4906_1379" x1="35.6502" y1="-0.541101" x2="-8.33419" y2="38.5154" gradientUnits="userSpaceOnUse">
<stop stop-color="#F50C0C"/>
<stop offset="1" stop-color="white"/>
</linearGradient>
<linearGradient id="paint2_linear_4906_1379" x1="32.0252" y1="3.71959" x2="-11.9592" y2="42.7761" gradientUnits="userSpaceOnUse">
<stop stop-color="#F50C0C"/>
<stop offset="1" stop-color="white"/>
</linearGradient>
</defs>
</svg>
